<?xml version="1.0" encoding="utf-8" ?>
<svg xmlns="http://www.w3.org/2000/svg" xmlns:xlink="http://www.w3.org/1999/xlink" width="555" height="540">
	<path d="M505.88 80.4551C508.08 83.7819 509.77 87.563 511.473 91.1613C518.006 104.962 521 119.786 521.514 135.017C521.756 142.21 521.5 149.447 521.559 156.648L521.675 173.255C521.69 176.02 521.89 178.972 521.632 181.719C520.872 180.824 521.029 168.216 520.914 165.812L520.804 166.749C520.451 158.835 520.532 150.895 520.557 142.976C520.568 139.424 521.07 134.317 520.315 130.929C519.362 127.667 519.86 124.052 519.105 120.719C517.492 113.602 516.182 106.406 513.678 99.5251C512.695 96.8234 511.329 94.4499 510.113 91.8734C509.457 90.4847 508.953 89.0164 508.267 87.6441C507.889 86.8868 507.296 86.2329 506.951 85.4783C506.527 84.5492 506.34 83.5125 505.904 82.586C505.722 82.1986 505.562 81.9165 505.462 81.4885C505.346 80.9898 505.609 80.8558 505.88 80.4551Z"/>
	<path d="M520.315 130.929C521.07 134.317 520.568 139.424 520.557 142.976C520.532 150.895 520.451 158.835 520.804 166.749L520.914 165.812C521.029 168.216 520.872 180.824 521.632 181.719C522.031 204.366 521.608 227.08 521.554 249.732L521.613 342.308L521.546 389.138C521.495 399.007 522.265 411.404 520.05 420.905C519.443 416.33 520.137 411.389 520.202 406.773C520.32 398.445 520.179 390.111 520.296 381.777C520.614 359.131 520.415 336.454 520.4 313.805L520.516 184.529C520.488 169.925 520.052 155.314 520.319 140.712C520.377 137.527 519.834 134.059 520.315 130.929Z"/>
	<path d="M520.05 420.905C520.095 425.933 517.818 432.119 516.311 436.899C507.645 464.385 487.29 489.232 461.615 502.54C448.987 509.085 435.905 512.803 421.77 514.197C417.743 514.595 413.652 514.629 409.608 514.761C397.876 515.142 386.115 514.961 374.377 514.957L295.988 514.946L195.427 514.946C175.213 514.948 154.872 515.618 134.694 514.357C126.121 513.821 117.409 512.35 109.219 509.728C82.1448 501.059 57.8761 479.623 45.0468 454.38C38.4665 441.432 34.4549 427.371 32.9807 412.924C32.3327 406.574 32.4253 400.178 32.3862 393.801L32.3445 367.196L32.393 291.797L32.3859 187.976L32.3173 157.757C32.2832 149.3 32.1803 140.814 32.6808 132.368C33.2688 122.446 34.8798 112.115 38.0014 102.659C47.5278 73.8009 68.389 50.5309 95.4553 36.9633C106.776 31.2883 119.515 27.7033 132.122 26.4405C139.213 25.7301 146.4 25.7635 153.52 25.7389L177.79 25.6888L258.195 25.6348L359.792 25.6409L392.838 25.6806C400.694 25.702 408.566 25.6202 416.41 26.1184C426.731 26.7739 436.632 28.3543 446.463 31.6667C461.165 36.6204 476.043 46.1285 487.15 56.9045C490.872 60.5154 494.268 64.5212 497.525 68.5508C500.49 72.219 503.782 76.2078 505.88 80.4551C505.609 80.8558 505.346 80.9898 505.462 81.4885C505.562 81.9165 505.722 82.1986 505.904 82.586C506.34 83.5125 506.527 84.5492 506.951 85.4783C507.296 86.2329 507.889 86.8868 508.267 87.6441C508.953 89.0164 509.457 90.4847 510.113 91.8734C511.329 94.4499 512.695 96.8234 513.678 99.5251C516.182 106.406 517.492 113.602 519.105 120.719C519.86 124.052 519.362 127.667 520.315 130.929C519.834 134.059 520.377 137.527 520.319 140.712C520.052 155.314 520.488 169.925 520.516 184.529L520.4 313.805C520.415 336.454 520.614 359.131 520.296 381.777C520.179 390.111 520.32 398.445 520.202 406.773C520.137 411.389 519.443 416.33 520.05 420.905ZM143.584 513.701C147.602 515.014 169.203 514.266 174.645 514.268L231.724 514.285L344.321 514.282L379.624 514.282C388.987 514.283 398.327 514.368 407.67 513.934C404.139 513.169 391.428 513.679 386.9 513.679L336.661 513.687L208.139 513.684L155.998 513.786C151.862 513.809 147.717 513.635 143.584 513.701Z"/>
	<path d="M143.584 513.701C147.717 513.635 151.862 513.809 155.998 513.786L208.139 513.684L336.661 513.687L386.9 513.679C391.428 513.679 404.139 513.169 407.67 513.934C398.327 514.368 388.987 514.283 379.624 514.282L344.321 514.282L231.724 514.285L174.645 514.268C169.203 514.266 147.602 515.014 143.584 513.701Z"/>
	<path fill="#FEFEFE" d="M128.311 197.288L159.545 197.259C159.131 220.702 159.504 244.217 159.517 267.667C159.524 280.871 160.54 297.041 157.899 309.919C155.556 321.348 148.966 331.462 139.176 337.867C125.434 346.856 107.079 347.433 91.4321 344.112C82.4658 341.86 75.5067 337.87 68.6475 331.696C73.8534 324.659 77.9259 316.112 81.3987 308.102C88.6641 313.142 96.218 317.945 105.341 318.186C110.865 318.333 117.07 316.762 121.132 312.847C123.895 310.185 126.338 306.266 127.187 302.522C129.389 292.803 128.499 278.156 128.501 267.742L128.484 216.961C128.476 210.4 128.178 203.85 128.311 197.288Z"/>
	<path fill="#FEFEFE" d="M363.697 197.288C380.798 197.066 397.927 197.275 415.031 197.266C425.042 197.261 436.835 196.656 446.669 197.548C450.658 197.91 454.537 198.747 458.296 200.14C467.67 203.613 475.343 210.242 479.467 219.438C483.464 228.348 483.541 239.385 479.983 248.45C476.191 258.113 467.951 264.663 458.661 268.749C459.81 268.962 460.942 269.226 462.066 269.545C470.214 271.862 476.551 277.791 480.607 285.088C486.592 295.856 486.105 307.272 482.836 318.754C481.149 323.901 477.984 328.502 474.097 332.236C468.515 337.596 461.824 340.598 454.31 342.211C441.784 344.902 428.244 343.524 415.507 343.511C398.262 343.494 380.996 343.711 363.753 343.452C363.508 326.131 363.709 308.819 363.721 291.501L363.697 197.288Z"/>
	<path d="M395.06 223.742L420.086 223.732C425.508 223.717 431.338 223.247 436.675 224.225C440.041 224.842 443.562 226.062 446.146 228.382C449.4 231.303 450.503 235.281 450.651 239.494C450.813 244.111 449.231 247.683 446.145 251.013C443.916 252.999 441.387 254.32 438.462 254.957C433.214 256.101 427.071 255.53 421.695 255.524L394.791 255.477C394.508 244.91 394.87 234.309 395.06 223.742Z"/>
	<path d="M395.068 282.737L424.598 282.5C429.676 282.496 435.266 282.027 440.237 283.149C443.366 283.856 446.411 285.369 448.721 287.616C451.871 290.68 453.653 295.452 453.668 299.812C453.684 304.789 451.623 308.531 448.203 311.98C445.501 314.329 442.283 315.402 438.809 316.039C432.732 317.152 426.285 316.76 420.124 316.758L395.055 316.733C394.556 305.431 394.323 294.034 395.068 282.737Z"/>
	<path fill="#FEFEFE" d="M258.649 169.752C265.13 169.613 271.367 169.847 277.724 171.291C302.656 176.953 323.855 194.883 337.295 216.216C353.494 241.929 361.386 277.609 354.572 307.544C349.702 328.941 338.457 349.606 319.399 361.502C304.09 371.058 284.348 373.336 266.869 369.331C251.28 365.186 238.662 359.205 226.282 348.756C222.777 345.798 219.557 341.272 215.323 339.451C213.068 338.481 210.672 338.317 208.263 338.086C199.878 337.279 191.004 337.547 184.417 331.528C173.275 321.345 166.914 306.316 166.321 291.311C165.653 274.375 168.521 273.027 180.123 261.669C182.341 259.497 184.599 257.158 185.848 254.268C187.98 249.337 187.854 243.421 188.872 238.184C192.072 221.709 200.04 204.826 211.496 192.479C224.035 178.964 239.951 170.389 258.649 169.752Z"/>
	<path d="M262.095 199.284C277.459 198.798 292.69 205.395 303.828 215.836C321.004 231.936 331.561 254.475 332.245 278.128C332.768 296.22 328.398 315.006 315.606 328.469C306.771 337.768 294.718 343.951 281.746 344.3C267.559 344.444 253.752 339.138 242.973 329.984C224.353 314.171 213.892 291.796 211.946 267.594C210.486 249.442 215.679 229.626 227.657 215.722C236.355 205.626 248.968 200.235 262.095 199.284Z"/>
	<path fill="#FEFEFE" d="M284.177 241.248C287.481 240.942 290.825 240.935 293.98 242.091C299.775 244.214 304.504 249.937 307.004 255.404C310.213 262.425 310.824 271.065 308.021 278.321C307.025 280.898 305.487 283.506 303.277 285.224C297.528 289.692 286.376 293.456 279.462 296.408L247.7 310.251C246.003 310.908 243.879 311.926 242.042 311.866C241.144 311.837 240.569 311.244 240.001 310.625C237.226 307.594 235.144 303.647 233.234 300.024C225.615 285.57 222.819 271.723 223.743 255.44C226.814 254.565 230.025 254.004 233.143 253.295C239.29 251.897 245.433 250.484 251.551 248.966C261.881 246.404 273.795 242.467 284.177 241.248Z"/>
	<path d="M285.55 247.697C288.189 247.56 290.417 247.554 292.944 248.547C297.389 250.295 300.738 254.294 302.596 258.591C304.69 263.434 305.391 269.357 303.309 274.333C301.712 278.151 298.728 280.651 294.99 282.173C291.873 282.525 289.097 282.225 286.284 280.82C281.785 278.574 278.584 273.93 277.05 269.228C275.492 264.454 275.62 258.476 277.932 253.962C279.618 250.671 282.117 248.837 285.55 247.697Z"/>
</svg>
